# xmcd
#
# Track frame offsets:
#	150
#	15401
#	31694
#	45736
#	62295
#	79842
#	95054
#	110703
#	124628
#	141289
#	158745
#
# Disc length: 2396 seconds
#
# Revision: 0
# Processed by: cddbd v1.5.2PL0 Copyright (c) Steve Scherf et al.
# Submitted via: EasyCDDAExtractor 8.0.1.1
#
DISCID=84095a0b
DTITLE=JJ and the Foriegn Cowboys
DYEAR=1900
DGENRE=
TTITLE0=Hold On
TTITLE1=When You Get Back
TTITLE2=It Ain't Shakespeare
TTITLE3=Be The Wild In Me
TTITLE4=I Can't Say
TTITLE5=Gotta Say
TTITLE6=Don't Remember Me
TTITLE7=Good Morning Darling
TTITLE8=If You're Gonna Hurt Me
TTITLE9=Sweet 'n Low
TTITLE10=Misery
EXTD=
EXTT0=
EXTT1=
EXTT2=
EXTT3=
EXTT4=
EXTT5=
EXTT6=
EXTT7=
EXTT8=
EXTT9=
EXTT10=
PLAYORDER=
